{"title":"Mad Max Fury Road 2015 CAMRip XviD MP3 Idiocracy","uid":11949461,"size":823119872,"categoryP":"video","categoryS":"movies","magnet":"?xt=urn:btih:e3d78ad1cf34b2b260a854be6ef184a0c0117378&amp;dn=Mad+Max+Fury+Road+2015+CAMRip+XviD+MP3+Idiocracy&amp;tr=udp%3A%2F%2Ftracker.openbittorrent.com%3A80&amp;tr=udp%3A%2F%2Fopen.demonii.com%3A1337&amp;tr=udp%3A%2F%2Ftracker.coppersurfer.tk%3A6969&amp;tr=udp%3A%2F%2Fexodus.desync.com%3A6969","seeders":0,"leechers":1,"uploader":"Satafakap","files":2,"time":1432134660,"description":"Synopsis / Plot\n\nIn a stark desert landscape where humanity is broken, two rebels just might be able to restore order: Max, a man of action and of few words, and Furiosa, a woman of action who is looking to make it back to her childhood homeland.\n\nDirector: George Miller\nWriters: George Miller, Brendan McCarthy\nStars: Tom Hardy, Charlize Theron, Nicholas Hoult \n &lt;a href=&quot;\nhttp://www.imdb.com/title/tt1392190/&quot; rel=&quot;nofollow&quot; target=&quot;_NEW&quot;&gt;\nhttp://www.imdb.com/title/tt1392190/&lt;/a&gt;\n\nGeneral\n\nComplete name       : Mad.Max.Fury.Road.2015.CAMRip.XviD.MP3-Idiocracy.avi\nFormat              : AVI\nFormat/Info         : Audio Video Interleave\nFile size           : 781 MiB\nDuration            : 1h 52mn\nOverall bit rate    : 967 Kbps\nWriting application : VirtualDubMod 1.5.10.3 | www.virtualdub-fr.org\nWriting library     : VirtualDubMod build 2550/release\nSource              :- Thanks!\nSample              : Yes\n\nVideo\n\nID                                       : 0\nFormat                                   : MPEG-4 Visual\nFormat profile                           : Advanced Simple@L5\nFormat settings, BVOP                    : 2\nFormat settings, QPel                    : No\nFormat settings, GMC                     : No warppoints\nFormat settings, Matrix                  : Default (H.263)\nMuxing mode                              : Packed bitstream\nCodec ID                                 : XVID\nCodec ID/Hint                            : XviD\nDuration                                 : 1h 52mn\nBit rate                                 : 830 Kbps\nWidth                                    : 640 pixels\nHeight                                   : 328 pixels\nDisplay aspect ratio                     : 16:9\nOriginal display aspect ratio            : 1.951\nFrame rate                               : 24.000 fps\nColor space                              : YUV\nChroma subsampling                       : 4:2:0\nBit depth                                : 8 bits\nScan type                                : Progressive\nCompression mode                         : Lossy\nBits/(Pixel*Frame)                       : 0.165\nStream size                              : 670 MiB (86%)\nWriting library                          : XviD 64\n\nAudio\n\nID                                       : 1\nFormat                                   : MPEG Audio\nFormat version                           : Version 1\nFormat profile                           : Layer 3\nCodec ID                                 : 55\nCodec ID/Hint                            : MP3\nDuration                                 : 1h 52mn\nBit rate mode                            : Constant\nBit rate                                 : 128 Kbps\nChannel(s)                               : 2 channels\nSampling rate                            : 44.1 KHz\nCompression mode                         : Lossy\nStream size                              : 103 MiB (13%)\nAlignment                                : Split accross interleaves\nInterleave, duration                     : 42 ms (1.00 video frame)\nInterleave, preload duration             : 500 ms\nWriting library                          : LAME3.99r\nEncoding settings                        : -m s -V 4 -q 3 -lowpass 17 -b 128\n\nScreenshots:\n &lt;a href=&quot;\nhttp://i.imgur.com/nV3bUnz.jpg&quot; rel=&quot;nofollow&quot; target=&quot;_NEW&quot;&gt;\nhttp://i.imgur.com/nV3bUnz.jpg&lt;/a&gt;\n &lt;a href=&quot;\nhttp://i.imgur.com/Y7L1AoV.jpg&quot; rel=&quot;nofollow&quot; target=&quot;_NEW&quot;&gt;\nhttp://i.imgur.com/Y7L1AoV.jpg&lt;/a&gt;\n &lt;a href=&quot;\nhttp://i.imgur.com/0iDouJh.jpg&quot; rel=&quot;nofollow&quot; target=&quot;_NEW&quot;&gt;\nhttp://i.imgur.com/0iDouJh.jpg&lt;/a&gt;\n &lt;a href=&quot;\nhttp://i.imgur.com/v8b0V9X.jpg&quot; rel=&quot;nofollow&quot; target=&quot;_NEW&quot;&gt;\nhttp://i.imgur.com/v8b0V9X.jpg&lt;/a&gt;\n &lt;a href=&quot;\nhttp://i.imgur.com/KLpAfVF.jpg&quot; rel=&quot;nofollow&quot; target=&quot;_NEW&quot;&gt;\nhttp://i.imgur.com/KLpAfVF.jpg&lt;/a&gt;","torrent":{"xt":"urn:btih:e3d78ad1cf34b2b260a854be6ef184a0c0117378","amp;dn":"Mad+Max+Fury+Road+2015+CAMRip+XviD+MP3+Idiocracy","amp;tr":["udp%3A%2F%2Ftracker.openbittorrent.com%3A80","udp%3A%2F%2Fopen.demonii.com%3A1337","udp%3A%2F%2Ftracker.coppersurfer.tk%3A6969","udp%3A%2F%2Fexodus.desync.com%3A6969"],"infoHash":"e3d78ad1cf34b2b260a854be6ef184a0c0117378","infoHashBuffer":{"type":"Buffer","data":[227,215,138,209,207,52,178,178,96,168,84,190,110,241,132,160,192,17,115,120]},"announce":[],"urlList":[]}}